<svg width="245" height="124" viewBox="0 0 245 124" fill="none" xmlns="http://www.w3.org/2000/svg">
<g clip-path="url(#clip0_171_377)">
<g opacity="0.4">
<path fill-rule="evenodd" clip-rule="evenodd" d="M225.085 84.8971L152.861 68.9995C146.19 67.5311 141.363 63.8719 142.881 57.4195L143.306 55.6199C144.172 51.9448 146.45 50.2569 150.01 48.7166L183.474 37.9945L208.294 43.4573L235.923 67.8783C238.452 70.5877 239.785 72.942 238.948 76.5014L238.312 79.2069C236.889 85.2483 231.327 86.2698 225.081 84.8931L225.085 84.8971Z" stroke="#6FA6A6" stroke-width="5" stroke-miterlimit="10" stroke-linecap="round"/>
<path d="M155.11 47.1085L161.513 45.0575" stroke="#6FA6A6" stroke-width="5" stroke-miterlimit="10" stroke-linecap="round"/>
<path d="M205.715 80.6314L192.872 77.8063" stroke="#6FA6A6" stroke-width="5" stroke-miterlimit="10" stroke-linecap="round"/>
<path d="M219.223 83.6082L213.562 82.3593" stroke="#6FA6A6" stroke-width="5" stroke-miterlimit="10" stroke-linecap="round"/>
<path d="M226.406 85.1884L224.978 84.8732" stroke="#6FA6A6" stroke-width="5" stroke-miterlimit="10" stroke-linecap="round"/>
<path d="M167.994 42.8907L173.226 41.2147" stroke="#6FA6A6" stroke-width="5" stroke-miterlimit="10" stroke-linecap="round"/>
<path d="M191.754 18.7691C192.831 14.1961 197.856 11.4029 202.98 12.5281C208.104 13.6534 211.384 18.2782 210.307 22.8512C209.23 27.4241 204.205 30.2174 199.081 29.0921" stroke="#6FA6A6" stroke-width="5" stroke-miterlimit="10" stroke-linecap="round"/>
<path d="M196.808 38.7527L199.081 29.092" stroke="#6FA6A6" stroke-width="5" stroke-miterlimit="10" stroke-linecap="round"/>
<path d="M209.853 18.3979C210.266 19.0324 210.501 19.9223 210.518 20.9318C210.53 21.5384 210.46 22.1888 210.303 22.8512" stroke="#6FA6A6" stroke-width="5" stroke-miterlimit="10" stroke-linecap="round"/>
<path d="M194.155 14.9423C195.001 14.0205 196.111 13.3062 197.377 12.8473C199.052 12.2408 201.004 12.0932 202.98 12.5281" stroke="#6FA6A6" stroke-width="5" stroke-miterlimit="10" stroke-linecap="round"/>
</g>
<path fill-rule="evenodd" clip-rule="evenodd" d="M209.812 83.6123H118.473C110.036 83.6123 103.2 80.4878 103.2 72.3315V70.053C103.2 65.4043 105.465 62.7706 109.31 59.9814L146.512 38.23H177.9L218.034 60.2807C221.842 62.8704 224.112 65.3444 224.112 69.8495V73.2733C224.112 80.9108 217.709 83.6123 209.812 83.6123Z" stroke="#6FA6A6" stroke-width="5" stroke-miterlimit="10"/>
<path d="M149.891 13.4698C149.891 7.68777 155.143 2.99512 161.62 2.99512C168.097 2.99512 173.349 7.68378 173.349 13.4698C173.349 19.2558 168.097 23.9445 161.62 23.9445" stroke="#6FA6A6" stroke-width="5" stroke-miterlimit="10" stroke-linecap="round"/>
<path d="M162.754 37.2084V24.99" stroke="#6FA6A6" stroke-width="5" stroke-miterlimit="10"/>
<path fill-rule="evenodd" clip-rule="evenodd" d="M124.295 72.6907C125.054 79.155 120.883 84.5101 120.495 84.3544C120.169 84.2268 122.414 80.2005 122.933 73.1934C123.016 72.1041 123.041 71.1065 123.037 70.2246C121.997 71.0626 117.294 75.1327 116.749 80.5157C116.134 86.5731 121.027 91.996 121.027 91.996C121.027 91.996 126.915 87.5946 127.525 81.5373C127.991 76.9484 125.302 72.7306 123.965 70.9509C124.101 71.4935 124.216 72.0682 124.291 72.6867L124.295 72.6907Z" fill="#66940A"/>
<path fill-rule="evenodd" clip-rule="evenodd" d="M117.884 71.8447C113.696 76.9364 106.831 77.8701 106.67 77.495C106.534 77.1798 111.064 75.867 116.555 71.2701C117.409 70.5558 118.156 69.8695 118.799 69.243C117.45 69.1233 111.15 68.7881 106.831 72.2198C101.967 76.0824 101.459 83.2611 101.459 83.2611C101.459 83.2611 108.84 84.1749 113.7 80.3082C117.384 77.3793 118.564 72.559 118.923 70.3882C118.626 70.8631 118.284 71.3499 117.884 71.8367V71.8447Z" fill="#66940A"/>
<path fill-rule="evenodd" clip-rule="evenodd" d="M113.964 66.8647C107.281 67.599 101.744 63.5647 101.905 63.1896C102.037 62.8744 106.2 65.0451 113.444 65.5479C114.571 65.6277 115.602 65.6517 116.514 65.6477C115.647 64.6421 111.439 60.0931 105.874 59.5664C99.6068 58.9758 94 63.7084 94 63.7084C94 63.7084 98.5506 69.3986 104.813 69.9932C109.558 70.4441 113.919 67.8424 115.759 66.5495C115.198 66.6812 114.604 66.7929 113.964 66.8647Z" fill="#66940A"/>
<path fill-rule="evenodd" clip-rule="evenodd" d="M114.839 60.6637C109.575 56.6135 108.609 49.9735 108.997 49.8179C109.323 49.6862 110.68 54.0676 115.433 59.3788C116.171 60.2048 116.881 60.927 117.529 61.5495C117.653 60.2447 117.999 54.1514 114.451 49.9735C110.457 45.2689 103.035 44.7781 103.035 44.7781C103.035 44.7781 102.091 51.9168 106.088 56.6175C109.117 60.1808 114.1 61.3221 116.345 61.6692C115.854 61.3819 115.35 61.0507 114.847 60.6637H114.839Z" fill="#66940A"/>
<path fill-rule="evenodd" clip-rule="evenodd" d="M119.988 56.8769C119.229 50.4125 123.4 45.0574 123.787 45.2131C124.113 45.3408 121.869 49.367 121.349 56.3741C121.267 57.4634 121.242 58.461 121.246 59.3429C122.286 58.5049 126.989 54.4348 127.534 49.0518C128.148 42.9944 123.255 37.5715 123.255 37.5715C123.255 37.5715 117.368 41.9729 116.757 48.0302C116.291 52.6192 118.981 56.837 120.318 58.6167C120.182 58.074 120.066 57.4994 119.992 56.8808L119.988 56.8769Z" fill="#66940A"/>
<path fill-rule="evenodd" clip-rule="evenodd" d="M126.399 57.7188C130.587 52.6271 137.452 51.6934 137.613 52.0684C137.749 52.3837 133.219 53.6965 127.728 58.2934C126.873 59.0077 126.127 59.694 125.483 60.3205C126.832 60.4402 133.132 60.7754 137.452 57.3437C142.316 53.481 142.823 46.3024 142.823 46.3024C142.823 46.3024 135.443 45.3886 130.582 49.2552C126.898 52.1842 125.718 57.0045 125.359 59.1753C125.656 58.7004 125.999 58.2136 126.399 57.7268V57.7188Z" fill="#66940A"/>
<path fill-rule="evenodd" clip-rule="evenodd" d="M130.314 62.6988C136.998 61.9645 142.535 65.9988 142.374 66.3739C142.242 66.6891 138.079 64.5184 130.834 64.0156C129.708 63.9358 128.676 63.9118 127.765 63.9158C128.631 64.9214 132.839 69.4704 138.405 69.9971C144.668 70.5917 150.274 65.8591 150.274 65.8591C150.274 65.8591 145.724 60.1649 139.461 59.5743C134.716 59.1234 130.356 61.7251 128.516 63.018C129.077 62.8863 129.671 62.7746 130.31 62.7028L130.314 62.6988Z" fill="#66940A"/>
<path fill-rule="evenodd" clip-rule="evenodd" d="M129.444 68.8997C134.708 72.9499 135.674 79.5899 135.286 79.7455C134.96 79.8772 133.602 75.4958 128.85 70.1846C128.111 69.3586 127.402 68.6364 126.754 68.0139C126.63 69.3187 126.284 75.412 129.832 79.5899C133.825 84.2945 141.247 84.7853 141.247 84.7853C141.247 84.7853 142.192 77.6466 138.194 72.946C135.166 69.3826 130.182 68.2413 127.938 67.8942C128.429 68.1815 128.932 68.5127 129.436 68.8997H129.444Z" fill="#66940A"/>
<path d="M23.256 75.508C22.08 76.684 20.7 77.608 19.116 78.28C17.556 78.952 15.888 79.288 14.112 79.288C12.336 79.288 10.668 78.952 9.108 78.28C7.548 77.608 6.192 76.684 5.04 75.508C3.864 74.356 2.94 73 2.268 71.44C1.596 69.88 1.26 68.212 1.26 66.436C1.26 64.66 1.596 62.992 2.268 61.432C2.94 59.848 3.864 58.468 5.04 57.292C6.192 56.14 7.548 55.228 9.108 54.556C10.668 53.86 12.336 53.512 14.112 53.512C15.888 53.512 17.556 53.86 19.116 54.556C20.7 55.228 22.08 56.14 23.256 57.292C24.408 58.468 25.32 59.848 25.992 61.432C26.688 62.992 27.036 64.66 27.036 66.436C27.036 68.212 26.688 69.88 25.992 71.44C25.32 73 24.408 74.356 23.256 75.508ZM6.084 74.5C7.092 75.556 8.28 76.384 9.648 76.984C11.04 77.584 12.504 77.884 14.04 77.884C15.624 77.884 17.112 77.584 18.504 76.984C19.92 76.384 21.156 75.556 22.212 74.5C23.244 73.468 24.06 72.268 24.66 70.9C25.26 69.508 25.56 68.02 25.56 66.436C25.56 64.852 25.26 63.376 24.66 62.008C24.06 60.616 23.244 59.392 22.212 58.336C21.156 57.304 19.932 56.488 18.54 55.888C17.172 55.264 15.696 54.952 14.112 54.952C12.552 54.952 11.076 55.264 9.684 55.888C8.316 56.488 7.116 57.304 6.084 58.336C5.052 59.368 4.236 60.592 3.636 62.008C3.036 63.4 2.736 64.888 2.736 66.472C2.736 68.032 3.036 69.508 3.636 70.9C4.236 72.292 5.052 73.492 6.084 74.5ZM46.8408 77.128C46.0968 77.848 45.2088 78.388 44.1768 78.748C43.1448 79.108 42.0288 79.288 40.8288 79.288C39.6048 79.288 38.4768 79.108 37.4448 78.748C36.4128 78.388 35.5128 77.848 34.7448 77.128C34.0008 76.432 33.4128 75.556 32.9808 74.5C32.5488 73.444 32.3328 72.232 32.3328 70.864V55.204H29.5608V53.8H36.7968V55.204H33.8088V70.756C33.8088 71.908 33.9768 72.928 34.3128 73.816C34.6728 74.68 35.1648 75.412 35.7888 76.012C36.3888 76.636 37.1208 77.104 37.9848 77.416C38.8488 77.728 39.7968 77.884 40.8288 77.884C41.8128 77.884 42.7368 77.728 43.6008 77.416C44.4648 77.104 45.2088 76.636 45.8328 76.012C46.4568 75.412 46.9488 74.68 47.3088 73.816C47.6688 72.928 47.8488 71.908 47.8488 70.756V55.204H44.8608V53.8H52.0968V55.204H49.3248V70.864C49.3248 72.232 49.0968 73.444 48.6408 74.5C48.2088 75.556 47.6088 76.432 46.8408 77.128ZM60.9632 79H54.6272V77.56H56.8952V55.204H54.6272V53.8H62.1872C63.9152 53.8 65.5472 54.1 67.0832 54.7C68.6192 55.276 69.9632 56.104 71.1152 57.184C72.2672 58.288 73.1792 59.62 73.8512 61.18C74.5232 62.74 74.8592 64.48 74.8592 66.4C74.8592 67.816 74.6072 69.268 74.1032 70.756C73.6232 72.244 72.8312 73.6 71.7272 74.824C70.6232 76.048 69.1832 77.056 67.4072 77.848C65.6552 78.616 63.5072 79 60.9632 79ZM58.3712 55.204V77.56H61.5032C63.4952 77.56 65.2352 77.248 66.7232 76.624C68.2352 75.976 69.4832 75.124 70.4672 74.068C71.4512 73.036 72.1832 71.86 72.6632 70.54C73.1672 69.196 73.4192 67.816 73.4192 66.4C73.4192 64.696 73.1192 63.16 72.5192 61.792C71.9432 60.4 71.1392 59.212 70.1072 58.228C69.0752 57.268 67.8752 56.524 66.5072 55.996C65.1632 55.468 63.7232 55.204 62.1872 55.204H58.3712ZM95.4093 79H77.3733V77.596H79.9653V55.204H77.3733V53.8H94.9053V59.344H93.5013V55.204H81.4413V65.572H93.5013V67.012H81.4413V77.596H94.0053V73.456H95.4093V79ZM14.148 113.38C13.452 114.004 12.636 114.484 11.7 114.82C10.764 115.132 9.78 115.288 8.748 115.288C7.812 115.288 6.936 115.192 6.12 115C5.328 114.808 4.632 114.556 4.032 114.244C3.384 113.956 2.832 113.644 2.376 113.308C1.92 112.948 1.56 112.612 1.296 112.3V108.448H2.736V111.688C3.384 112.288 4.188 112.804 5.148 113.236C6.108 113.668 7.26 113.884 8.604 113.884C9.42 113.884 10.2 113.752 10.944 113.488C11.688 113.224 12.36 112.864 12.96 112.408C13.512 111.928 13.968 111.352 14.328 110.68C14.688 109.984 14.868 109.216 14.868 108.376C14.868 107.536 14.736 106.804 14.472 106.18C14.232 105.556 13.884 105.04 13.428 104.632C12.948 104.152 12.384 103.78 11.736 103.516C11.112 103.228 10.44 102.952 9.72 102.688C8.88 102.424 8.016 102.16 7.128 101.896C6.264 101.632 5.472 101.296 4.752 100.888C4.008 100.456 3.396 99.892 2.916 99.196C2.436 98.5 2.172 97.564 2.124 96.388C2.1 95.596 2.196 94.804 2.412 94.012C2.652 93.196 3.036 92.464 3.564 91.816C4.092 91.168 4.776 90.652 5.616 90.268C6.456 89.86 7.476 89.656 8.676 89.656C9.084 89.656 9.528 89.68 10.008 89.728C10.488 89.776 10.98 89.86 11.484 89.98C11.964 90.1 12.456 90.292 12.96 90.556C13.488 90.796 13.98 91.096 14.436 91.456V95.344H12.996V92.176C12.54 91.888 11.94 91.636 11.196 91.42C10.476 91.18 9.624 91.06 8.64 91.06C7.776 91.06 7.02 91.204 6.372 91.492C5.748 91.78 5.232 92.164 4.824 92.644C4.416 93.124 4.104 93.664 3.888 94.264C3.696 94.864 3.6 95.488 3.6 96.136C3.6 97.216 3.864 98.056 4.392 98.656C4.92 99.232 5.592 99.7 6.408 100.06C7.344 100.492 8.388 100.852 9.54 101.14C10.716 101.428 11.82 101.824 12.852 102.328C13.836 102.832 14.652 103.54 15.3 104.452C15.972 105.364 16.32 106.648 16.344 108.304C16.344 109.36 16.14 110.32 15.732 111.184C15.348 112.048 14.82 112.78 14.148 113.38ZM25.6874 115H18.4514V113.596H21.3674V91.204H18.4514V89.8H22.2314C24.3434 92.56 26.4794 95.356 28.6394 98.188C30.7994 100.996 32.7674 103.54 34.5434 105.82C36.6074 103.156 38.6594 100.492 40.6994 97.828C42.7394 95.14 44.7914 92.464 46.8554 89.8H50.6354V91.204H47.7194V113.596H50.7434V115H43.5074V113.596H46.2434V94.228C46.2434 93.94 46.2434 93.712 46.2434 93.544C46.2674 93.352 46.2914 93.112 46.3154 92.824C46.1234 93.088 45.9554 93.316 45.8114 93.508C45.6674 93.7 45.4994 93.928 45.3074 94.192L34.5434 108.232L23.4554 93.796C23.3114 93.58 23.1914 93.424 23.0954 93.328C23.0234 93.208 22.9154 93.04 22.7714 92.824C22.7954 93.04 22.8074 93.28 22.8074 93.544C22.8314 93.784 22.8434 94.012 22.8434 94.228V113.596H25.6874V115ZM60.2041 115H53.2561V113.596H56.0281C57.7801 109.396 59.5441 105.244 61.3201 101.14C63.0961 97.012 64.8601 92.848 66.6121 88.648C68.3641 92.848 70.1161 97.012 71.8681 101.14C73.6441 105.244 75.4201 109.396 77.1961 113.596H79.9681V115H73.0561V113.596H75.6841C75.0121 112.012 74.3401 110.44 73.6681 108.88C73.0201 107.32 72.3601 105.748 71.6881 104.164H61.5361C60.8161 105.892 60.1561 107.464 59.5561 108.88C58.9561 110.296 58.2841 111.868 57.5401 113.596H60.2041V115ZM66.2521 92.968C65.6041 94.6 64.9201 96.244 64.2001 97.9C63.5041 99.532 62.8201 101.152 62.1481 102.76H71.0761L66.9361 92.968L66.6121 91.924C66.5641 92.14 66.5041 92.32 66.4321 92.464C66.3841 92.608 66.3241 92.776 66.2521 92.968ZM89.4189 115H82.4709V113.596H85.2429C86.9949 109.396 88.7589 105.244 90.5349 101.14C92.3109 97.012 94.0749 92.848 95.8269 88.648C97.5789 92.848 99.3309 97.012 101.083 101.14C102.859 105.244 104.635 109.396 106.411 113.596H109.183V115H102.271V113.596H104.899C104.227 112.012 103.555 110.44 102.883 108.88C102.235 107.32 101.575 105.748 100.903 104.164H90.7509C90.0309 105.892 89.3709 107.464 88.7709 108.88C88.1709 110.296 87.4989 111.868 86.7549 113.596H89.4189V115ZM95.4669 92.968C94.8189 94.6 94.1349 96.244 93.4149 97.9C92.7189 99.532 92.0349 101.152 91.3629 102.76H100.291L96.1509 92.968L95.8269 91.924C95.7789 92.14 95.7189 92.32 95.6469 92.464C95.5989 92.608 95.5389 92.776 95.4669 92.968ZM118.922 115H111.686V113.596H114.458V91.204H111.686V89.8H118.634V91.204H115.934V101.104C115.934 101.296 115.922 101.476 115.898 101.644C115.898 101.812 115.886 101.992 115.862 102.184L116.546 101.428L127.202 91.204H125.294V89.8H132.242V91.204H129.146L120.074 99.844C121.898 102.148 123.71 104.44 125.51 106.72C127.31 109 129.11 111.292 130.91 113.596H133.862V115H126.914V113.596H129.11C127.43 111.46 125.75 109.336 124.07 107.224C122.414 105.088 120.746 102.952 119.066 100.816L115.934 103.804V113.596H118.922V115Z" fill="black"/>
</g>
<defs>
<clipPath id="clip0_171_377">
<rect width="245" height="124" fill="white"/>
</clipPath>
</defs>
</svg>
