<svg width="42" height="42" viewBox="0 0 42 42" fill="none" xmlns="http://www.w3.org/2000/svg">
<path d="M17.5129 5.30186C17.5129 3.47874 19.0808 2 21.0142 2C22.9476 2 24.5154 3.47874 24.5154 5.30186C24.5154 7.12499 22.9476 8.60373 21.0142 8.60373" stroke="#F18888" stroke-width="2.57795" stroke-miterlimit="10" stroke-linecap="round"/>
<path d="M21.2136 10.7395V8.646" stroke="#F18888" stroke-width="2.57795" stroke-miterlimit="10"/>
<path d="M21.2241 10.4781L39.9432 20.278C40.9099 20.784 40.5807 22.2733 39.4931 22.305L35.6384 22.4153" stroke="#F18888" stroke-width="2.57795" stroke-linecap="round" stroke-linejoin="round"/>
<path d="M20.9448 10.599L2.56247 20.2221C1.61239 20.7191 1.93714 22.1827 3.00353 22.2129L6.78874 22.3217" stroke="#F18888" stroke-width="2.57795" stroke-linecap="round" stroke-linejoin="round"/>
<path d="M33.7428 21.0197V37.6604C33.7428 39.3219 32.4574 40.6693 30.8714 40.6693H11.6221C10.0361 40.6693 8.75073 39.3219 8.75073 37.6604V20.7795" stroke="#F18888" stroke-width="2.57795" stroke-miterlimit="10"/>
</svg>
