<?xml version="1.0" encoding="UTF-8"?>
<svg id="Laag_1" data-name="Laag 1" xmlns="http://www.w3.org/2000/svg" viewBox="0 0 276.64 281">
  <defs>
    <style>
      .cls-1, .cls-2 {
        opacity: .6;
      }

      .cls-1, .cls-3 {
        fill: #e4807e;
        stroke: #1d1d1b;
        stroke-linecap: square;
        stroke-linejoin: round;
        stroke-width: .5px;
      }

      .cls-2, .cls-4 {
        fill: #1d1d1b;
        stroke-width: 0px;
      }
    </style>
  </defs>
  <path class="cls-1" d="M198.01,195.05c23.6,7.37,35.49,33.67,25.45,56.26h0s-2.05,4.62-2.05,4.62c-9.07,20.41-32.71,29.93-53.4,21.5L.63,209.2V32.28h92.96v130.14l104.43,32.63Z"/>
  <path class="cls-2" d="M176.85,278.71h0c-17.57-6.59-26.78-25.36-20.56-41.93l7.3-19.46c6.21-16.57,25.49-24.66,43.07-18.07h0c17.57,6.59,26.78,25.36,20.56,41.93l-4.39,11.7-2.91,7.76c-6.21,16.57-25.49,24.66-43.07,18.07Z"/>
  <path class="cls-2" d="M.07,31.65h92.81s.07.03.07.07v53.89c0,1-.81,1.81-1.81,1.81H1.57c-.87,0-1.57-.71-1.57-1.57V31.73s.03-.07.07-.07Z"/>
  <circle class="cls-2" cx="30" cy="120.83" r="3.96"/>
  <circle class="cls-2" cx="66.93" cy="120.83" r="3.96"/>
  <circle class="cls-2" cx="45.83" cy="139.29" r="3.96"/>
  <circle class="cls-2" cx="117.05" cy="186.77" r="3.96"/>
  <circle class="cls-2" cx="122.32" cy="213.15" r="3.96"/>
  <circle class="cls-2" cx="64.29" cy="170.95" r="3.96"/>
  <circle class="cls-2" cx="153.98" cy="197.33" r="3.96"/>
  <circle class="cls-2" cx="93.31" cy="213.15" r="3.96"/>
  <circle class="cls-2" cx="22.09" cy="170.95" r="3.96"/>
  <circle class="cls-2" cx="40.55" cy="199.96" r="3.96"/>
  <g>
    <path class="cls-3" d="M245.49,163.4c23.6,7.37,35.49,33.67,25.45,56.26h0s-2.05,4.62-2.05,4.62c-9.07,20.41-32.71,29.93-53.4,21.5L48.11,177.54V.63h92.96v130.14l104.43,32.63Z"/>
    <path class="cls-4" d="M224.33,247.05h0c-17.57-6.59-26.78-25.36-20.56-41.93l7.3-19.46c6.21-16.57,25.49-24.66,43.07-18.07h0c17.57,6.59,26.78,25.36,20.56,41.93l-4.39,11.7-2.91,7.76c-6.21,16.57-25.49,24.66-43.07,18.07Z"/>
    <path class="cls-4" d="M47.56,0h92.81s.07.03.07.07v53.89c0,1-.81,1.81-1.81,1.81H49.06c-.87,0-1.57-.71-1.57-1.57V.07s.03-.07.07-.07Z"/>
    <circle class="cls-4" cx="77.48" cy="89.18" r="3.96"/>
    <circle class="cls-4" cx="114.41" cy="89.18" r="3.96"/>
    <circle class="cls-4" cx="93.31" cy="107.64" r="3.96"/>
    <circle class="cls-4" cx="164.53" cy="155.12" r="3.96"/>
    <circle class="cls-4" cx="169.81" cy="181.5" r="3.96"/>
    <circle class="cls-4" cx="111.77" cy="139.29" r="3.96"/>
    <circle class="cls-4" cx="201.46" cy="165.67" r="3.96"/>
    <circle class="cls-4" cx="140.79" cy="181.5" r="3.96"/>
    <circle class="cls-4" cx="188.27" cy="221.07" r="3.96"/>
    <circle class="cls-4" cx="69.57" cy="139.29" r="3.96"/>
    <circle class="cls-4" cx="88.03" cy="168.31" r="3.96"/>
  </g>
</svg>