<?xml version="1.0" encoding="UTF-8"?>
<svg id="Laag_1" data-name="Laag 1" xmlns="http://www.w3.org/2000/svg" viewBox="0 0 375.17 283.62">
  <defs>
    <style>
      .cls-1 {
        fill: #7ba99d;
        stroke: #000;
      }

      .cls-1, .cls-2, .cls-3 {
        stroke-miterlimit: 10;
      }

      .cls-1, .cls-2, .cls-3, .cls-4 {
        fill-rule: evenodd;
      }

      .cls-5 {
        stroke-width: 0px;
      }

      .cls-2 {
        fill: #5d8a2f;
      }

      .cls-2, .cls-3, .cls-4 {
        stroke: #1d1d1b;
      }

      .cls-3 {
        fill: none;
      }

      .cls-4 {
        fill: #e4807e;
        stroke-linecap: square;
        stroke-linejoin: round;
        stroke-width: .5px;
      }
    </style>
  </defs>
  <path class="cls-1" d="M296.05,283.09l3.06-219.42c11.9,9.74,24.68,19.48,36.58,29.22,4.82,3.94,11.81,3.67,16.33-.61,5.44-5.17,10.87-10.33,16.31-15.5,5.36-5.09,5.22-13.7-.32-18.6-21.77-19.23-43.53-38.45-65.29-57.68h-86.41c-.3,2.73-2.2,17.77-15.33,27.28-2.19,1.59-9.72,6.88-20.46,6.82-15.28-.09-24.91-10.96-27.28-13.64-6.86-7.75-9.06-16.18-9.85-20.46h-65.71L6.61,66.91c-4.57,4.27-5.04,11.36-1.04,16.2l18.51,22.47c4.64,5.63,13.09,6.1,18.33,1.03l44.29-42.94c1.31,5.24-.6,143.02-2.5,219.45l211.86-.03Z"/>
  <rect class="cls-5" x="329.61" y="69.14" width="48.81" height="20.35" rx="5.02" ry="5.02" transform="translate(70.82 306.07) rotate(-51.31)"/>
  <rect class="cls-5" x="-3.99" y="77.91" width="52.3" height="20.35" rx="5.02" ry="5.02" transform="translate(-33.27 160.05) rotate(-128.27)"/>
  <g>
    <path class="cls-3" d="M175.12,204.51c.43-3.79,2.79-7.14,5.73-9.57,2.94-2.43,6.44-4.06,9.89-5.67,5.58-2.59,11.16-5.19,16.74-7.78"/>
    <g>
      <path class="cls-3" d="M178.33,247.68c-8.85-20.91-7.55-45.85,3.42-65.72,9.77-17.7,26.25-30.82,36.84-48.04"/>
      <path class="cls-3" d="M178.61,186.74c-7.12-13.4-10.3-28.86-9.06-43.98"/>
      <path class="cls-4" d="M180.26,124.64c0,10.02-5,18.14-11.16,18.14s-11.16-8.12-11.16-18.14,11.16-25.58,11.16-25.58c0,0,11.16,15.56,11.16,25.58Z"/>
      <path class="cls-4" d="M242.03,122.32c-6.63,11.2-17.6,16.98-24.49,12.9-6.89-4.08-7.11-16.47-.48-27.68s29.42-21.22,29.42-21.22c0,0,2.18,24.79-4.45,36Z"/>
      <path class="cls-4" d="M234.64,174.36c-6.4,9.96-16.56,14.84-22.68,10.9-6.13-3.94-5.91-15.2.49-25.16,6.4-9.96,27.44-18.3,27.44-18.3,0,0,1.16,22.6-5.24,32.56Z"/>
      <path class="cls-2" d="M169.1,142.77c-4.44-11.19-.95-13.55-1.86-24.18"/>
      <path class="cls-3" d="M220.23,135.41c2.45-15.46,7.91-15.78,13.93-28.28"/>
      <path class="cls-3" d="M212.88,185.86c2.74-13.96,7.71-14.08,13.6-25.23"/>
    </g>
  </g>
</svg>