<svg width="34" height="40" viewBox="0 0 34 40" fill="none" xmlns="http://www.w3.org/2000/svg">
<path d="M29.6294 6.22709C29.6294 2.57974 27.8014 0 23.8763 0C22.0516 0 19.0438 1.97069 17.7842 3.02078C16.5245 1.97069 13.5134 0 11.6921 0C7.76693 0 5.93896 2.57974 5.93896 6.22709C5.93896 7.11967 6.13173 7.96675 6.47738 8.74382L6.27797 12.8322H29.2937L29.0943 8.74382C29.4399 7.96675 29.6327 7.11967 29.6327 6.22709H29.6294Z" fill="#F18888"/>
<path d="M33.7874 35.854C34.2427 37.7092 33.1825 39.6063 31.6902 39.6063H2.20346C0.614797 39.6063 -0.45207 37.4746 0.18938 35.5739L5.69654 19.2239C6.04884 18.1808 6.83985 17.5052 7.71062 17.5052H27.682C28.6392 17.5052 29.4867 18.3138 29.7791 19.5039L33.784 35.854H33.7874Z" fill="#F18888"/>
</svg>
