<?xml version="1.0" encoding="UTF-8"?>
<svg id="Laag_1" data-name="Laag 1" xmlns="http://www.w3.org/2000/svg" viewBox="0 0 231 220.13">
  <defs>
    <style>
      .cls-1 {
        fill: none;
        stroke: #000;
        stroke-linecap: round;
        stroke-miterlimit: 10;
        stroke-width: 7px;
      }

      .cls-2 {
        fill: #8cc63f;
        fill-rule: evenodd;
        stroke-width: 0px;
      }
    </style>
  </defs>
  <path class="cls-1" d="M160.65,143.41c5.99-31.29,3.21-28.09,2.83-48.51-.38-20.43-9.82-39.71-20.23-59.25-10.41-19.53-23.09-27.15-23.09-27.15"/>
  <ellipse class="cls-1" cx="115.5" cy="110.06" rx="112" ry="106.56"/>
  <line class="cls-1" x1="115.5" y1="143.56" x2="115.5" y2="3.5"/>
  <path class="cls-1" d="M33.87,38.84s9.63,11.22,30.63,18.22c21,7,41.6,13.09,61.8,10.04,20.2-3.04,17.51.23,47.36-10.9l25.15-17.36"/>
  <path class="cls-1" d="M111.46,8.5s-12.68,7.62-23.09,27.15c-10.41,19.53-19.86,38.82-20.23,59.25-.38,20.43-3.16,17.23,2.83,48.51"/>
  <line class="cls-1" x1="3.5" y1="110.06" x2="227.5" y2="110.06"/>
  <path class="cls-2" d="M78.15,202.2c-26.53-28.01-26.5-67.77-24.17-68.38,1.95-.51,6.03,26.3,28.61,61.3,3.52,5.45,6.94,10.25,10.09,14.42,1.78-7.56,8.82-43.05-7.88-70.45-18.79-30.83-60.53-39.66-60.53-39.66,0,0-11.28,41.15,7.5,71.98,14.23,23.35,41.6,34.07,54.05,37.9-2.56-2.09-5.14-4.43-7.68-7.11Z"/>
  <path class="cls-2" d="M98.45,190.16c33.85-36.87,85.3-40.45,86.31-37.49.84,2.48-33.5,10.19-76.75,42.59-6.73,5.05-12.64,9.91-17.75,14.37,9.95,1.61,56.52,7.51,90.47-16.59,38.2-27.11,45.84-81.94,45.84-81.94,0,0-54.28-10.87-92.48,16.24-28.93,20.54-40.32,56.93-44.15,73.4,2.47-3.5,5.27-7.05,8.51-10.58Z"/>
</svg>