<svg width="42" height="41" viewBox="0 0 42 41" fill="none" xmlns="http://www.w3.org/2000/svg">
<path d="M9.93617 11.4512L7.03283 12.8054L2 5.64451L8.58053 1.38693L14.5807 1C14.5807 1 16.2871 7.83524 20.9677 8.35439C22.7103 8.54785 23.7486 8.3516 24.8384 7.58053C27.3771 5.7823 29.096 2.21924 28.5156 1H32.9778L40.5159 5.64451L35.4831 12.612L33.1601 11.4512V20.7416" stroke="#F18888" stroke-width="1.77085" stroke-miterlimit="10" stroke-linecap="round"/>
<path d="M14.9384 38.2618H8.46362V18.7736" stroke="#F18888" stroke-width="1.77085" stroke-miterlimit="10" stroke-linecap="round"/>
<path d="M8.42185 18.047L9.26251 19.4068L10.1032 20.7652L8.50536 20.8139L6.90894 20.8613L7.66609 19.4541L8.42185 18.047Z" stroke="#F18888" stroke-width="1.77085" stroke-miterlimit="10" stroke-linecap="round"/>
<path d="M33.831 25.7788L33.9159 37.4882L19.981 37.2947" stroke="#F18888" stroke-width="1.77085" stroke-miterlimit="10" stroke-linecap="round"/>
<path d="M19.2742 37.2154L20.6702 36.4388L22.0662 35.6608L22.0411 37.2586L22.0174 38.8564L20.6451 38.0366L19.2742 37.2154Z" stroke="#F18888" stroke-width="1.77085" stroke-miterlimit="10" stroke-linecap="round"/>
<path d="M34.0243 25.4016L34.8121 26.792L35.5985 28.1839L34.0006 28.1699L32.4028 28.1546L33.2143 26.7781L34.0243 25.4016Z" stroke="#F18888" stroke-width="1.77085" stroke-miterlimit="10" stroke-linecap="round"/>
</svg>
